<svg width="3877" height="1039" viewBox="0 0 3877 1039" fill="none" xmlns="http://www.w3.org/2000/svg">
<path d="M1269.63 434C1261.1 411.067 1244.96 399.6 1221.23 399.6C1208.96 399.6 1198.96 403.2 1191.23 410.4C1183.5 417.6 1179.63 426 1179.63 435.6C1179.63 445.467 1182.56 453.6 1188.43 460C1194.56 466.133 1202.16 471.733 1211.23 476.8C1220.3 481.867 1230.03 486.8 1240.43 491.6C1250.83 496.133 1260.56 501.867 1269.63 508.8C1278.7 515.467 1286.16 523.733 1292.03 533.6C1298.16 543.2 1301.23 555.6 1301.23 570.8C1301.23 584.133 1298.7 596.4 1293.63 607.6C1288.56 618.533 1281.36 628 1272.03 636C1262.7 643.733 1251.5 649.733 1238.43 654C1225.63 658 1211.23 660 1195.23 660C1180.83 660 1167.9 658.4 1156.43 655.2C1145.23 652.267 1136.7 648.533 1130.83 644C1133.5 634.667 1135.76 626.133 1137.63 618.4C1139.5 610.667 1141.1 602.267 1142.43 593.2H1150.03C1151.1 599.067 1153.1 604.667 1156.03 610C1158.96 615.067 1162.7 619.6 1167.23 623.6C1171.76 627.6 1177.23 630.8 1183.63 633.2C1190.03 635.333 1197.23 636.4 1205.23 636.4C1221.23 636.4 1232.96 632.4 1240.43 624.4C1248.16 616.4 1252.03 606.8 1252.03 595.6C1252.03 585.467 1249.1 577.2 1243.23 570.8C1237.36 564.4 1230.03 558.8 1221.23 554C1212.43 548.933 1202.83 544.133 1192.43 539.6C1182.03 534.8 1172.43 529.067 1163.63 522.4C1154.83 515.733 1147.5 507.6 1141.63 498C1135.76 488.133 1132.83 475.6 1132.83 460.4C1132.83 446.533 1135.23 434.267 1140.03 423.6C1145.1 412.933 1151.76 404 1160.03 396.8C1168.3 389.6 1177.76 384.133 1188.43 380.4C1199.36 376.667 1210.83 374.8 1222.83 374.8C1237.23 374.8 1249.76 376.533 1260.43 380C1271.36 383.467 1280.7 388.267 1288.43 394.4C1286.03 400.533 1283.9 406.533 1282.03 412.4C1280.43 418 1278.3 425.2 1275.63 434H1269.63ZM1455.63 455.2C1448.7 471.2 1442.16 487.067 1436.03 502.8C1429.9 518.267 1423.9 534.133 1418.03 550.4H1491.23C1485.36 534.133 1479.5 518.267 1473.63 502.8C1468.03 487.067 1462.03 471.2 1455.63 455.2ZM1597.23 654.8C1590.83 654.267 1584.7 654 1578.83 654C1573.23 654 1567.63 654 1562.03 654C1556.43 654 1550.7 654 1544.83 654C1539.23 654 1533.63 654.267 1528.03 654.8C1523.76 641.733 1519.36 628.4 1514.83 614.8C1510.3 601.2 1505.5 587.6 1500.43 574C1491.9 573.733 1483.36 573.6 1474.83 573.6C1466.3 573.333 1457.76 573.2 1449.23 573.2C1442.3 573.2 1435.36 573.333 1428.43 573.6C1421.5 573.6 1414.56 573.733 1407.63 574C1402.3 587.6 1397.36 601.2 1392.83 614.8C1388.3 628.4 1384.16 641.733 1380.43 654.8C1377.23 654.267 1374.03 654 1370.83 654C1367.9 654 1364.83 654 1361.63 654C1358.43 654 1355.23 654 1352.03 654C1348.83 654 1345.36 654.267 1341.63 654.8C1344.83 647.867 1349.1 638.267 1354.43 626C1359.76 613.733 1365.63 599.867 1372.03 584.4C1378.43 568.933 1385.23 552.4 1392.43 534.8C1399.9 516.933 1407.23 498.933 1414.43 480.8C1421.9 462.667 1429.1 444.8 1436.03 427.2C1443.23 409.6 1449.76 393.2 1455.63 378C1458.3 378.533 1460.83 379.067 1463.23 379.6C1465.63 379.867 1468.16 380 1470.83 380C1473.5 380 1476.03 379.867 1478.43 379.6C1480.83 379.067 1483.36 378.533 1486.03 378C1494.56 400.667 1503.63 424.933 1513.23 450.8C1523.1 476.667 1532.96 502.133 1542.83 527.2C1552.7 552 1562.3 575.6 1571.63 598C1580.96 620.4 1589.5 639.333 1597.23 654.8ZM1714.03 530.4C1714.03 559.467 1714.16 584.4 1714.43 605.2C1714.69 626 1715.63 642.533 1717.23 654.8C1712.69 654.267 1707.76 654 1702.43 654C1697.09 654 1691.09 654 1684.43 654C1677.76 654 1671.76 654 1666.43 654C1661.09 654 1656.16 654.267 1651.63 654.8C1652.69 638.267 1653.49 621.467 1654.03 604.4C1654.56 587.067 1654.83 567.333 1654.83 545.2V490.8C1654.83 468.667 1654.56 449.067 1654.03 432C1653.49 414.667 1652.69 397.333 1651.63 380C1656.16 380.533 1661.09 381.067 1666.43 381.6C1671.76 381.867 1677.76 382 1684.43 382C1691.09 382 1697.09 381.867 1702.43 381.6C1707.76 381.067 1712.69 380.533 1717.23 380C1715.89 388 1714.96 400 1714.43 416C1714.16 432 1714.03 449.733 1714.03 469.2V507.6C1723.09 496.933 1732.83 485.333 1743.23 472.8C1753.63 460 1763.63 447.6 1773.23 435.6C1782.83 423.6 1791.49 412.667 1799.23 402.8C1806.96 392.667 1812.56 385.067 1816.03 380C1819.76 380.533 1823.49 381.067 1827.23 381.6C1830.96 381.867 1834.69 382 1838.43 382C1842.16 382 1845.89 381.867 1849.63 381.6C1853.63 381.067 1857.89 380.533 1862.43 380C1857.89 384.533 1850.96 391.867 1841.63 402C1832.29 412.133 1822.29 423.067 1811.63 434.8C1801.23 446.533 1791.23 458 1781.63 469.2C1772.03 480.133 1764.56 488.8 1759.23 495.2C1767.76 508.267 1777.23 522.667 1787.63 538.4C1798.03 554.133 1808.29 569.6 1818.43 584.8C1828.83 599.733 1838.43 613.6 1847.23 626.4C1856.03 638.933 1863.09 648.4 1868.43 654.8C1860.69 654.267 1853.76 654 1847.63 654C1841.49 654 1835.49 654 1829.63 654C1823.76 654 1817.89 654 1812.03 654C1806.43 654 1800.69 654.267 1794.83 654.8C1781.23 634.533 1767.89 614 1754.83 593.2C1741.76 572.133 1728.43 551.2 1714.83 530.4H1714.03ZM2044.96 660C2027.89 660 2011.89 658.133 1996.96 654.4C1982.29 650.933 1969.49 645.067 1958.56 636.8C1947.63 628.267 1938.96 617.467 1932.56 604.4C1926.43 591.067 1923.36 574.933 1923.36 556C1923.36 545.333 1923.36 535.867 1923.36 527.6C1923.63 519.067 1923.76 511.2 1923.76 504C1923.76 496.8 1923.76 489.867 1923.76 483.2C1924.03 476.533 1924.16 469.6 1924.16 462.4C1924.16 440.8 1924.03 423.333 1923.76 410C1923.49 396.667 1923.09 386.667 1922.56 380C1927.89 380.533 1933.36 381.067 1938.96 381.6C1944.56 381.867 1950.03 382 1955.36 382C1960.69 382 1966.16 381.867 1971.76 381.6C1977.36 381.067 1982.83 380.533 1988.16 380C1985.49 405.867 1983.89 430 1983.36 452.4C1982.83 474.533 1982.56 497.067 1982.56 520C1982.56 544.267 1984.29 563.867 1987.76 578.8C1991.23 593.733 1996.29 605.333 2002.96 613.6C2009.89 621.6 2018.29 626.933 2028.16 629.6C2038.03 632.267 2049.49 633.6 2062.56 633.6C2078.56 633.6 2091.09 629.6 2100.16 621.6C2109.23 613.6 2116.03 602.933 2120.56 589.6C2125.36 576.267 2128.29 561.067 2129.36 544C2130.43 526.667 2130.96 508.667 2130.96 490C2130.96 471.6 2130.69 453.333 2130.16 435.2C2129.63 416.8 2128.83 398.4 2127.76 380C2131.49 380.533 2135.09 381.067 2138.56 381.6C2142.03 381.867 2145.23 382 2148.16 382C2151.63 382 2154.96 381.867 2158.16 381.6C2161.36 381.067 2164.69 380.533 2168.16 380C2167.63 385.867 2167.09 393.733 2166.56 403.6C2166.03 413.467 2165.49 424.933 2164.96 438C2164.43 450.8 2163.89 465.067 2163.36 480.8C2163.09 496.267 2162.96 512.667 2162.96 530C2162.96 576.4 2152.96 609.733 2132.96 630C2112.96 650 2083.63 660 2044.96 660ZM2376.69 455.2C2376.69 443.467 2375.49 434.133 2373.09 427.2C2370.69 420.267 2366.95 415.067 2361.89 411.6C2357.09 407.867 2350.69 405.467 2342.69 404.4C2334.95 403.333 2325.62 402.8 2314.69 402.8C2313.89 439.067 2313.49 475.333 2313.49 511.6C2315.09 511.867 2316.55 512.133 2317.89 512.4C2319.49 512.4 2320.95 512.4 2322.29 512.4C2339.89 512.4 2353.35 507.733 2362.69 498.4C2372.02 488.8 2376.69 474.4 2376.69 455.2ZM2313.49 528.8V545.2C2313.49 567.333 2313.75 587.067 2314.29 604.4C2314.82 621.467 2315.62 638.267 2316.69 654.8C2312.15 654.267 2307.22 654 2301.89 654C2296.55 654 2290.55 654 2283.89 654C2277.22 654 2271.22 654 2265.89 654C2260.55 654 2255.62 654.267 2251.09 654.8C2252.15 638.267 2252.95 621.467 2253.49 604.4C2254.02 587.067 2254.29 567.333 2254.29 545.2V490.8C2254.29 468.667 2254.02 449.067 2253.49 432C2252.95 414.667 2252.15 397.333 2251.09 380C2255.62 380.533 2260.55 381.067 2265.89 381.6C2271.22 381.867 2277.22 382 2283.89 382C2291.09 382 2299.22 381.733 2308.29 381.2C2317.62 380.4 2329.09 380 2342.69 380C2352.82 380 2361.49 380.267 2368.69 380.8C2375.89 381.333 2382.02 382.133 2387.09 383.2C2392.42 384.267 2396.95 385.733 2400.69 387.6C2404.69 389.2 2408.42 391.2 2411.89 393.6C2419.89 399.467 2426.15 406.8 2430.69 415.6C2435.49 424.133 2437.89 434.4 2437.89 446.4C2437.89 465.867 2432.55 481.733 2421.89 494C2411.22 506.267 2395.89 514.933 2375.89 520C2388.69 542.667 2402.42 565.333 2417.09 588C2431.75 610.4 2446.42 632.667 2461.09 654.8C2454.95 654.267 2448.95 654 2443.09 654C2437.22 654 2431.22 654 2425.09 654C2418.95 654 2412.82 654 2406.69 654C2400.82 654 2394.82 654.267 2388.69 654.8L2317.09 528.8H2313.49ZM2602.82 455.2C2595.89 471.2 2589.35 487.067 2583.22 502.8C2577.09 518.267 2571.09 534.133 2565.22 550.4H2638.42C2632.55 534.133 2626.69 518.267 2620.82 502.8C2615.22 487.067 2609.22 471.2 2602.82 455.2ZM2744.42 654.8C2738.02 654.267 2731.89 654 2726.02 654C2720.42 654 2714.82 654 2709.22 654C2703.62 654 2697.89 654 2692.02 654C2686.42 654 2680.82 654.267 2675.22 654.8C2670.95 641.733 2666.55 628.4 2662.02 614.8C2657.49 601.2 2652.69 587.6 2647.62 574C2639.09 573.733 2630.55 573.6 2622.02 573.6C2613.49 573.333 2604.95 573.2 2596.42 573.2C2589.49 573.2 2582.55 573.333 2575.62 573.6C2568.69 573.6 2561.75 573.733 2554.82 574C2549.49 587.6 2544.55 601.2 2540.02 614.8C2535.49 628.4 2531.35 641.733 2527.62 654.8C2524.42 654.267 2521.22 654 2518.02 654C2515.09 654 2512.02 654 2508.82 654C2505.62 654 2502.42 654 2499.22 654C2496.02 654 2492.55 654.267 2488.82 654.8C2492.02 647.867 2496.29 638.267 2501.62 626C2506.95 613.733 2512.82 599.867 2519.22 584.4C2525.62 568.933 2532.42 552.4 2539.62 534.8C2547.09 516.933 2554.42 498.933 2561.62 480.8C2569.09 462.667 2576.29 444.8 2583.22 427.2C2590.42 409.6 2596.95 393.2 2602.82 378C2605.49 378.533 2608.02 379.067 2610.42 379.6C2612.82 379.867 2615.35 380 2618.02 380C2620.69 380 2623.22 379.867 2625.62 379.6C2628.02 379.067 2630.55 378.533 2633.22 378C2641.75 400.667 2650.82 424.933 2660.42 450.8C2670.29 476.667 2680.15 502.133 2690.02 527.2C2699.89 552 2709.49 575.6 2718.82 598C2728.15 620.4 2736.69 639.333 2744.42 654.8ZM3153.34 609.6C3151.21 615.2 3149.34 620.933 3147.74 626.8C3146.14 632.4 3145.08 638 3144.54 643.6C3122.94 654.533 3095.74 660 3062.94 660C3039.74 660 3018.94 656.8 3000.54 650.4C2982.41 643.733 2966.94 634.533 2954.14 622.8C2941.61 610.8 2932.01 596.667 2925.34 580.4C2918.68 564.133 2915.34 546.533 2915.34 527.6C2915.34 499.867 2919.61 476.4 2928.14 457.2C2936.94 437.733 2948.54 422 2962.94 410C2977.61 397.733 2994.54 388.8 3013.74 383.2C3032.94 377.6 3053.08 374.8 3074.14 374.8C3081.08 374.8 3088.41 375.333 3096.14 376.4C3103.88 377.467 3111.34 378.933 3118.54 380.8C3125.74 382.4 3132.54 384.4 3138.94 386.8C3145.61 389.2 3151.21 391.733 3155.74 394.4C3153.08 401.067 3150.94 407.867 3149.34 414.8C3148.01 421.467 3147.08 428.267 3146.54 435.2H3140.94C3130.81 422.4 3120.41 413.333 3109.74 408C3099.08 402.4 3086.54 399.6 3072.14 399.6C3061.48 399.6 3050.68 402 3039.74 406.8C3029.08 411.6 3019.34 418.933 3010.54 428.8C3001.74 438.667 2994.54 451.333 2988.94 466.8C2983.61 482 2980.94 500.267 2980.94 521.6C2980.94 542.133 2983.74 559.733 2989.34 574.4C2994.94 588.8 3002.14 600.667 3010.94 610C3020.01 619.067 3030.14 625.733 3041.34 630C3052.81 634.267 3064.28 636.4 3075.74 636.4C3082.14 636.4 3088.68 635.733 3095.34 634.4C3102.01 632.8 3108.54 630.8 3114.94 628.4C3121.34 625.733 3127.34 622.533 3132.94 618.8C3138.81 615.067 3143.88 610.933 3148.14 606.4L3153.34 609.6ZM3289.77 455.2C3282.84 471.2 3276.31 487.067 3270.17 502.8C3264.04 518.267 3258.04 534.133 3252.17 550.4H3325.37C3319.51 534.133 3313.64 518.267 3307.77 502.8C3302.17 487.067 3296.17 471.2 3289.77 455.2ZM3431.37 654.8C3424.97 654.267 3418.84 654 3412.97 654C3407.37 654 3401.77 654 3396.17 654C3390.57 654 3384.84 654 3378.97 654C3373.37 654 3367.77 654.267 3362.17 654.8C3357.91 641.733 3353.51 628.4 3348.97 614.8C3344.44 601.2 3339.64 587.6 3334.57 574C3326.04 573.733 3317.51 573.6 3308.97 573.6C3300.44 573.333 3291.91 573.2 3283.37 573.2C3276.44 573.2 3269.51 573.333 3262.57 573.6C3255.64 573.6 3248.71 573.733 3241.77 574C3236.44 587.6 3231.51 601.2 3226.97 614.8C3222.44 628.4 3218.31 641.733 3214.57 654.8C3211.37 654.267 3208.17 654 3204.97 654C3202.04 654 3198.97 654 3195.77 654C3192.57 654 3189.37 654 3186.17 654C3182.97 654 3179.51 654.267 3175.77 654.8C3178.97 647.867 3183.24 638.267 3188.57 626C3193.91 613.733 3199.77 599.867 3206.17 584.4C3212.57 568.933 3219.37 552.4 3226.57 534.8C3234.04 516.933 3241.37 498.933 3248.57 480.8C3256.04 462.667 3263.24 444.8 3270.17 427.2C3277.37 409.6 3283.91 393.2 3289.77 378C3292.44 378.533 3294.97 379.067 3297.37 379.6C3299.77 379.867 3302.31 380 3304.97 380C3307.64 380 3310.17 379.867 3312.57 379.6C3314.97 379.067 3317.51 378.533 3320.17 378C3328.71 400.667 3337.77 424.933 3347.37 450.8C3357.24 476.667 3367.11 502.133 3376.97 527.2C3386.84 552 3396.44 575.6 3405.77 598C3415.11 620.4 3423.64 639.333 3431.37 654.8ZM3488.97 490.8C3488.97 468.667 3488.7 449.067 3488.17 432C3487.64 414.667 3486.84 397.333 3485.77 380C3497.77 380.267 3509.64 380.667 3521.37 381.2C3533.1 381.733 3544.97 382 3556.97 382C3576.7 382 3594.17 381.867 3609.37 381.6C3624.84 381.067 3635.24 380.533 3640.57 380C3639.5 384.267 3638.97 389.867 3638.97 396.8C3638.97 401.067 3639.1 404.4 3639.37 406.8C3639.64 409.2 3640.04 411.867 3640.57 414.8C3632.84 414.267 3624.3 413.733 3614.97 413.2C3605.9 412.667 3596.97 412.133 3588.17 411.6C3579.64 411.067 3571.9 410.667 3564.97 410.4C3558.04 410.133 3553.1 410 3550.17 410C3549.1 424.667 3548.44 439.2 3548.17 453.6C3548.17 468 3548.17 482.533 3548.17 497.2C3565.5 496.933 3581.1 496.533 3594.97 496C3609.1 495.467 3623.77 494.8 3638.97 494C3638.17 498.533 3637.64 502 3637.37 504.4C3637.1 506.8 3636.97 509.333 3636.97 512C3636.97 514.133 3637.1 516.4 3637.37 518.8C3637.9 520.933 3638.44 524.133 3638.97 528.4C3608.57 526 3578.3 524.8 3548.17 524.8V545.2C3548.17 567.333 3548.44 587.067 3548.97 604.4C3549.5 621.467 3550.3 638.267 3551.37 654.8C3546.84 654.267 3541.9 654 3536.57 654C3531.24 654 3525.24 654 3518.57 654C3511.9 654 3505.9 654 3500.57 654C3495.24 654 3490.3 654.267 3485.77 654.8C3486.84 638.267 3487.64 621.467 3488.17 604.4C3488.7 587.067 3488.97 567.333 3488.97 545.2V490.8ZM3708.97 490.8C3708.97 468.667 3708.7 449.067 3708.17 432C3707.64 414.667 3706.84 397.333 3705.77 380C3717.77 380.267 3729.64 380.667 3741.37 381.2C3753.1 381.733 3764.97 382 3776.97 382C3796.7 382 3814.17 381.867 3829.37 381.6C3844.84 381.067 3855.24 380.533 3860.57 380C3859.5 384.267 3858.97 389.867 3858.97 396.8C3858.97 401.067 3859.1 404.4 3859.37 406.8C3859.64 409.2 3860.04 411.867 3860.57 414.8C3852.84 414.267 3844.3 413.733 3834.97 413.2C3825.9 412.667 3816.97 412.133 3808.17 411.6C3799.64 411.067 3791.9 410.667 3784.97 410.4C3778.04 410.133 3773.1 410 3770.17 410C3769.1 424.667 3768.44 439.2 3768.17 453.6C3768.17 468 3768.17 482.533 3768.17 497.2C3785.5 496.933 3801.1 496.533 3814.97 496C3829.1 495.467 3843.77 494.8 3858.97 494C3858.17 498.533 3857.64 502 3857.37 504.4C3857.1 506.8 3856.97 509.333 3856.97 512C3856.97 514.133 3857.1 516.4 3857.37 518.8C3857.9 520.933 3858.44 524.133 3858.97 528.4C3828.57 526 3798.3 524.8 3768.17 524.8C3768.17 533.333 3768.04 541.867 3767.77 550.4C3767.77 558.933 3767.77 567.467 3767.77 576C3767.77 593.333 3768.17 610 3768.97 626C3784.17 626 3799.37 625.6 3814.57 624.8C3829.77 624 3845.1 622.667 3860.57 620.8C3860.04 623.733 3859.64 626.4 3859.37 628.8C3859.1 631.2 3858.97 634.533 3858.97 638.8C3858.97 643.067 3859.1 646.4 3859.37 648.8C3859.64 651.2 3860.04 653.2 3860.57 654.8C3853.37 654.533 3844.44 654.267 3833.77 654C3823.37 654 3808.97 654 3790.57 654C3774.3 654 3761.1 654 3750.97 654C3741.1 654 3733.1 654 3726.97 654C3721.1 654 3716.57 654 3713.37 654C3710.44 654.267 3707.9 654.533 3705.77 654.8C3706.84 638.267 3707.64 621.467 3708.17 604.4C3708.7 587.067 3708.97 567.333 3708.97 545.2V490.8Z" fill="#5B210C"/>
<circle cx="520.02" cy="519.424" r="518.161" fill="#F9DDF2" stroke="#DEAFAF" stroke-width="2"/>
<g filter="url(#filter0_f_17_2)">
<path d="M479.713 156.255C479.713 156.255 477.217 177.42 503.275 201.124C529.333 224.828 485.988 245.12 485.988 245.12" stroke="white" stroke-width="4"/>
</g>
<g filter="url(#filter1_f_17_2)">
<path d="M613.718 149.342C613.718 149.342 608.571 171.26 631.462 199.181C654.353 227.103 608.745 243.327 608.745 243.327" stroke="white" stroke-width="4"/>
</g>
<g filter="url(#filter2_f_17_2)">
<path d="M388.834 128.111C388.834 128.111 382.452 150.501 403.761 180.357C425.07 210.214 378.563 224.896 378.563 224.896" stroke="white" stroke-width="4"/>
</g>
<ellipse cx="813.347" cy="592.949" rx="84.6232" ry="185.376" fill="white"/>
<ellipse cx="786.623" cy="586.329" rx="57.9001" ry="112.55" fill="#F9DDF2"/>
<path d="M220.984 261.92H808.892L715.362 930.599H519.392H318.969L220.984 261.92Z" fill="white"/>
<circle cx="517.944" cy="521.5" r="483.358" stroke="#D5A1A1"/>
<ellipse cx="625.244" cy="765.004" rx="21.5178" ry="26.6023" transform="rotate(14.6737 625.244 765.004)" fill="#5B210C"/>
<line x1="630.775" y1="744.899" x2="620.212" y2="785.239" stroke="#DCC4A9" stroke-width="2"/>
<ellipse cx="20.9151" cy="27.3736" rx="20.9151" ry="27.3736" transform="matrix(0.547725 -0.836659 0.846659 0.532136 535.683 787.751)" fill="#5B210C"/>
<line y1="-1" x2="42.91" y2="-1" transform="matrix(0.846659 0.532136 -0.547725 0.836659 551.755 774.005)" stroke="#DCC4A9" stroke-width="2"/>
<ellipse cx="21.2896" cy="26.8995" rx="21.2896" ry="26.8995" transform="matrix(-0.645197 -0.764017 0.783002 -0.62202 562.469 875.626)" fill="#5B210C"/>
<line y1="-1" x2="42.1668" y2="-1" transform="matrix(0.783002 -0.62202 0.645196 0.764017 553.761 856.304)" stroke="#DCC4A9" stroke-width="2"/>
<ellipse cx="21.2896" cy="26.8995" rx="21.2896" ry="26.8995" transform="matrix(-0.936842 0.349752 -0.377659 -0.925945 660.194 875.878)" fill="#5B210C"/>
<line y1="-1" x2="42.1668" y2="-1" transform="matrix(-0.377659 -0.925945 0.936842 -0.349752 638.74 877.682)" stroke="#DCC4A9" stroke-width="2"/>
<ellipse cx="20.9151" cy="27.3736" rx="20.9151" ry="27.3736" transform="matrix(0.0673815 0.997727 -0.998804 0.0488927 689.559 787.048)" fill="#5B210C"/>
<line y1="-1" x2="42.91" y2="-1" transform="matrix(-0.998804 0.0488927 -0.0673815 -0.997727 685.008 807.485)" stroke="#DCC4A9" stroke-width="2"/>
<ellipse cx="366.039" cy="354.923" rx="27.495" ry="33.9918" transform="rotate(-10 366.039 354.923)" fill="#5B210C"/>
<line x1="361.464" y1="328.677" x2="370.717" y2="381.152" stroke="#DCC4A9" stroke-width="2"/>
<ellipse cx="26.7248" cy="34.9774" rx="26.7248" ry="34.9774" transform="matrix(0.148454 -0.988919 0.991499 0.130114 274.183 429.108)" fill="#5B210C"/>
<line y1="-1" x2="54.8294" y2="-1" transform="matrix(0.991499 0.130114 -0.148454 0.988919 285.511 404.575)" stroke="#DCC4A9" stroke-width="2"/>
<ellipse cx="27.2034" cy="34.3716" rx="27.2034" ry="34.3716" transform="matrix(-0.905229 -0.424924 0.451851 -0.892093 352.157 516.853)" fill="#5B210C"/>
<line y1="-1" x2="53.8798" y2="-1" transform="matrix(0.451851 -0.892093 0.905229 0.424924 331.739 499.063)" stroke="#DCC4A9" stroke-width="2"/>
<ellipse cx="27.2034" cy="34.3716" rx="27.2034" ry="34.3716" transform="matrix(-0.705304 0.708905 -0.729715 -0.683751 465.762 465.019)" fill="#5B210C"/>
<line y1="-1" x2="53.8798" y2="-1" transform="matrix(-0.729715 -0.683751 0.705304 -0.708905 441.814 478.557)" stroke="#DCC4A9" stroke-width="2"/>
<ellipse cx="26.7248" cy="34.9774" rx="26.7248" ry="34.9774" transform="matrix(0.477731 0.878506 -0.887203 0.46138 452.476 346.212)" fill="#5B210C"/>
<line y1="-1" x2="54.8294" y2="-1" transform="matrix(-0.887203 0.46138 -0.477731 -0.878506 458.093 372.37)" stroke="#DCC4A9" stroke-width="2"/>
<ellipse cx="550.054" cy="522.532" rx="21.5178" ry="26.6023" transform="rotate(157.887 550.054 522.532)" fill="#5B210C"/>
<line x1="557.664" y1="541.946" x2="541.966" y2="503.312" stroke="#DCC4A9" stroke-width="2"/>
<ellipse cx="20.9151" cy="27.3736" rx="20.9151" ry="27.3736" transform="matrix(0.0623719 0.998053 -0.996727 0.0808445 608.157 450.681)" fill="#5B210C"/>
<line y1="-1" x2="42.91" y2="-1" transform="matrix(-0.996727 0.0808445 -0.0623719 -0.998053 603.518 471.314)" stroke="#DCC4A9" stroke-width="2"/>
<ellipse cx="21.2896" cy="26.8995" rx="21.2896" ry="26.8995" transform="matrix(0.974242 0.225505 -0.254588 0.967049 534.082 396.346)" fill="#5B210C"/>
<line y1="-1" x2="42.1668" y2="-1" transform="matrix(-0.254588 0.967049 -0.974242 -0.225505 552.628 406.606)" stroke="#DCC4A9" stroke-width="2"/>
<ellipse cx="21.2896" cy="26.8995" rx="21.2896" ry="26.8995" transform="matrix(0.54084 -0.841125 0.85695 0.5154 455.667 454.666)" fill="#5B210C"/>
<line y1="-1" x2="42.1668" y2="-1" transform="matrix(0.85695 0.5154 -0.54084 0.841125 471.769 440.374)" stroke="#DCC4A9" stroke-width="2"/>
<ellipse cx="20.9151" cy="27.3736" rx="20.9151" ry="27.3736" transform="matrix(-0.651445 -0.758696 0.77063 -0.637283 485.344 543.393)" fill="#5B210C"/>
<line y1="-1" x2="42.91" y2="-1" transform="matrix(0.77063 -0.637283 0.651445 0.758696 476.75 524.3)" stroke="#DCC4A9" stroke-width="2"/>
<defs>
<filter id="filter0_f_17_2" x="473.648" y="152.023" width="43.9648" height="98.9071" filterUnits="userSpaceOnUse" color-interpolation-filters="sRGB">
<feFlood flood-opacity="0" result="BackgroundImageFix"/>
<feBlend mode="normal" in="SourceGraphic" in2="BackgroundImageFix" result="shape"/>
<feGaussianBlur stdDeviation="2" result="effect1_foregroundBlur_17_2"/>
</filter>
<filter id="filter1_f_17_2" x="604.074" y="144.888" width="39.8161" height="104.323" filterUnits="userSpaceOnUse" color-interpolation-filters="sRGB">
<feFlood flood-opacity="0" result="BackgroundImageFix"/>
<feBlend mode="normal" in="SourceGraphic" in2="BackgroundImageFix" result="shape"/>
<feGaussianBlur stdDeviation="2" result="effect1_foregroundBlur_17_2"/>
</filter>
<filter id="filter2_f_17_2" x="373.96" y="123.565" width="41.3893" height="107.237" filterUnits="userSpaceOnUse" color-interpolation-filters="sRGB">
<feFlood flood-opacity="0" result="BackgroundImageFix"/>
<feBlend mode="normal" in="SourceGraphic" in2="BackgroundImageFix" result="shape"/>
<feGaussianBlur stdDeviation="2" result="effect1_foregroundBlur_17_2"/>
</filter>
</defs>
</svg>
